<?xml version="1.0" encoding="iso-8859-1"?>
<!-- Uploaded to: SVG Repo, www.svgrepo.com, Generator: SVG Repo Mixer Tools -->
<svg fill="#000000" version="1.1" id="Layer_1" xmlns="http://www.w3.org/2000/svg" xmlns:xlink="http://www.w3.org/1999/xlink" 
	 viewBox="0 0 512 512" xml:space="preserve">
<g>
	<g>
		<rect x="174.298" y="375.829" width="32.681" height="43.574"/>
	</g>
</g>
<g>
	<g>
		<rect x="305.021" y="375.829" width="32.681" height="43.574"/>
	</g>
</g>
<g>
	<g>
		<path d="M152.511,217.871c-12.009,0-21.783,9.772-21.787,21.787c0,12.013,9.773,21.787,21.785,21.787h0.002
			c12.013,0,21.787-9.774,21.787-21.787C174.298,227.645,164.524,217.871,152.511,217.871z"/>
	</g>
</g>
<g>
	<g>
		<path d="M359.489,217.871c-12.009,0-21.783,9.772-21.787,21.787c0,12.013,9.773,21.787,21.785,21.787h0.002
			c12.013,0,21.787-9.774,21.787-21.787C381.277,227.645,371.503,217.871,359.489,217.871z"/>
	</g>
</g>
<g>
	<g>
		<path d="M462.979,76.254c-29.141,0-54.221,17.7-65.071,42.91c-4.503-4.073-9.469-7.641-14.795-10.641
			c-1.303-4.594-6.902-23.963-14.173-43.644c-14.567-39.432-25.809-54.078-41.297-53.983c-15.541,0.077-26.585,14.821-40.75,54.401
			c-4.355,12.169-8.075,24.211-10.588,32.746h-40.622c-2.598-8.536-6.509-20.789-11.08-33.162
			c-14.527-39.327-25.698-53.983-41.17-53.983c-0.041,0-0.085,0-0.126,0c-15.541,0.077-26.585,14.821-40.75,54.401
			c-6.786,18.961-12.035,37.619-13.557,43.161c-5.371,3.014-10.375,6.605-14.911,10.707c-10.848-25.211-35.927-42.911-65.069-42.911
			H0v49.021c0,39.044,31.765,70.809,70.809,70.809h16.34v92.596c0,22.464,10.539,43.118,27.851,56.308
			c-3.898,9.523-6.063,19.931-6.063,30.841v43.574c0,45.051,36.652,81.702,81.702,81.702h130.723
			c45.051,0,81.702-36.652,81.702-81.702v-43.574c0-10.909-2.166-21.317-6.062-30.84c17.311-13.189,27.85-33.844,27.85-56.308
			v-92.597h16.34c39.044,0,70.809-31.765,70.809-70.809V76.254C512,76.254,462.979,76.254,462.979,76.254z M87.149,163.403h-16.34
			c-21.024,0-38.128-17.104-38.128-38.128v-16.34h16.34c21.024,0,38.128,17.104,38.128,38.128V163.403z M327.847,51.423
			c5.249,10.495,11.933,27.786,18.007,46.687c-0.9-0.029-35.462-0.069-35.462-0.069C316.253,79.179,322.724,61.927,327.847,51.423z
			 M183.512,51.423c5.242,10.483,11.915,27.744,17.985,46.618c0,0-34.525,0.039-35.462,0.071
			C171.9,79.222,178.383,61.939,183.512,51.423z M168.851,130.722h174.298c21.302,0,39.464,13.663,46.211,32.681h-35.317
			c-39.044,0-70.808,31.765-70.808,70.808v59.915h-54.468v-59.915c0-39.044-31.765-70.808-70.809-70.808H122.64
			C129.386,144.385,147.549,130.722,168.851,130.722z M119.83,288.679v-92.596h38.128c21.024,0,38.128,17.104,38.128,38.128v59.915
			h-5.447c-22.344,0-42.615,9.023-57.379,23.609C124.876,310.612,119.83,300.081,119.83,288.679z M370.383,419.403
			c0,27.03-21.991,49.021-49.021,49.021H190.638c-27.03,0-49.021-21.991-49.021-49.021v-43.574c0-27.03,21.991-49.021,49.021-49.021
			h130.723c27.03,0,49.021,21.991,49.021,49.021V419.403z M392.17,288.681c0,11.401-5.045,21.933-13.429,29.055
			c-14.765-14.586-35.036-23.61-57.38-23.61h-5.447v-59.915c0-21.024,17.104-38.128,38.128-38.128h38.128V288.681z M479.319,125.275
			c0,21.024-17.104,38.128-38.128,38.128h-16.34v-16.34c0-21.024,17.104-38.128,38.128-38.128h16.34V125.275z"/>
	</g>
</g>
</svg>