<svg style="transform: scaleX(-1)" xmlns="http://www.w3.org/2000/svg" xmlns:xlink="http://www.w3.org/1999/xlink" version="1.1" x="0px" y="0px" viewBox="0 0 100 125" enable-background="new 0 0 100 100" xml:space="preserve"><g><path d="M97.8,40.4c-0.2-0.2-0.4-0.2-0.7-0.2C94.7,41,92.5,38,92.5,38c-2.6-3.8-5.2-5.6-7.8-7.4c-0.5-0.3-0.9-0.6-1.4-1   c-2.5-1.8-5.2-2.6-6-2.8c-2.7-3.4-7.6-4.2-11.9-4.5c-4.1-0.3-12.7-3.6-18.4-5.9c-1.4-0.5-2.6-1-3.5-1.4c-3.2-1.2-4.6-1-6-0.9   c-0.8,0.1-1.6,0.1-2.7,0c-1.4-0.2-3.6-1-5.7-1.8c1.8-1,2-3.1,2-3.1s-3.2-2-3.9-0.8c-0.5,0.8-2.2,1.4-3.3,1.7   c-0.5-0.2-1.5-0.6-2.4-1.4c-0.6-0.5-1.3-0.6-2.1-0.5l-2.9-1.8c-0.2-0.1-0.4-0.1-0.6-0.1c-0.2,0.1-0.3,0.2-0.4,0.4   C14.9,8,15,9.3,15.3,10c-0.1,0-0.2,0.1-0.2,0.1c-0.4,0.2-0.8,0.5-1.2,0.7c-0.1,0-0.1,0.1-0.2,0.2c0,0-0.6,0.8-1.7,2.3   c-1,1.5-5,4.9-5.9,5.1c-0.5,0-0.9,0.2-1.1,0.6c-0.6,1-0.2,2.7,0.9,4.4c1.4,2.1,4,1.4,5.2,0.7c0.2-0.1,1.2-0.3,3.2,0.2   c1.7,0.4,4.8,0.3,6.7,0.2c0.7,1,2.9,4.3,3.2,6.4c0,0.2,0.1,0.5,0.1,0.7c-2.3,0.6-7.2,1.7-8.4,1.7c0,0,0,0,0,0c-1.8,0-4.9,1.3-5,1.3   c-0.1,0-0.1,0.1-0.2,0.1l-8.4,6.7c-0.3,0.2-0.3,0.6-0.2,0.9c0.4,0.7,1.3,1.7,2.6,1.7c0.3,0,0.6-0.1,1-0.2c1.3-0.6,3.1,0,3.1,0   c0.3,0.1,0.7,0,0.8-0.4c0.9-1.8,2.8-4.8,4.4-5c1.5-0.3,5.6-0.2,8.4-0.2l0,0l-5.2,2.5c-0.3,0.1-1.5,0.5-2.4,1.8   c-0.7,1-2.2,2.3-3.7,3.6c-0.4,0.3-0.7,0.6-1,0.9c-1.7,1.6-3.4,3.3-3.4,3.3c-0.2,0.2-0.3,0.6,0,0.9c0.1,0.1,1.3,1.6,3,1.7   c0.1,0,0.1,0,0.2,0c0.9,0,1.7-0.4,2.5-1.2c0,0,0.1-0.1,0.1-0.1c0,0,0.7-1.1,1.8-0.9c0,0,0,0,0.1,0c0.1,0,0.5,0,1-0.3   c0.5-0.4,0.9-1,1-2c0.1-1.4,2.6-3.8,3.2-4.1c0.1,0,0.4,0,0.7,0.1c1,0.1,2.5,0.3,4-0.2c0.7-0.3,2.2-0.8,3.9-1.5   c1.8-0.7,3.9-1.5,5.4-2.1c0.7,0.1,4,0.5,5.8,1.5c0.4,0.2,0.8,0.4,1.3,0.7c2.2,1.3,5.6,3.3,11.8,3.9c1.2,0.1,2.4,0.1,3.6,0   c0.7,0.8,2.7,2.8,6.1,3.6c0.2,0.2,0.5,0.5,0.5,1.1c0,0.9,0.7,1.7,1.5,1.8c0.6,0,1.4-0.4,1.5-1.7c0-0.4,0.1-0.6,0.1-0.7c0,0,0,0,0,0   c0.2,0,0.3,0,0.5,0c0.7,0,2.1,0.1,2.8,0.1c0.3,0.5,0.5,1,0.5,1.2c-0.1,0.7,0.6,1.2,0.8,1.4c0.4,0.3,0.8,0.4,1.2,0.4   c0.2,0,0.4,0,0.6-0.1c0.3-0.2,0.7-0.6,0.7-1.6c0-0.3,0-0.6,0.2-0.8c0.2-0.2,0.5-0.1,0.6-0.1c0.1,0,0.1,0,0.2,0l2.5-0.2   c0.6,0.6,1.3,1.2,2,1.7c1.1,0.9,2.3,1.7,3.4,2.5c2.4,1.6,4.9,3.3,7.1,6.4c0,0.1,0.1,0.1,0.2,0.2l3.9,2.6c0.1,0.1,0.3,0.1,0.4,0.1   c0.1,0,0.2,0,0.3,0c0.2-0.1,0.4-0.3,0.4-0.5c0-0.2,0.6-2.7,0-4.7c0.3-1,1.2-4.3,0.1-5.8c-0.7-1-1.4-1-2.2-1.1   c-0.6-0.1-1.4-0.2-2.5-0.8c-1.1-0.7-1.6-2.1-2.1-3.4c-0.5-1.5-1-2.9-2.3-3.3c-1.7-0.5-3.1-2.6-3.1-2.6c-1.7-2.9-2.3-10.8-2.3-10.9   c0-0.1,0-0.1,0-0.2c4.9,1.3,10.4,8.2,10.9,8.9c1.9,4.1,5.1,6,5.2,6.1c0.2,0.1,0.4,0.1,0.6,0c0.2-0.1,0.3-0.2,0.4-0.4l1.5-4.9   C98,40.8,98,40.6,97.8,40.4z M28.4,10c1-0.6,1.6-0.4,1.6-0.4c-0.5,1.3-1.4,1.8-2.3,2.1c-0.2,0.1-0.4,0.1-0.6,0.1c0,0,0,0,0,0   c-0.2,0-0.4,0-0.6,0c-1,0-1.9-0.8-1.2-0.7c0.1,0,0.2,0,0.3,0c0,0,0,0,0,0c0.1,0,0.3-0.1,0.4-0.1c0,0,0,0,0,0l0,0   C26.9,10.8,27.7,10.4,28.4,10z M16.5,7.9l1.2,0.8c-0.4,0.2-0.8,0.4-1.2,0.6C16.4,8.9,16.4,8.4,16.5,7.9z M22.6,24.4   c0.1,0,0.2,0,0.2,0c0.4,0,0.7-0.4,0.6-0.7c0-0.4-0.4-0.7-0.7-0.6c-0.1,0-5.7,0.4-8.1-0.1c-2.7-0.6-3.9-0.1-4-0.1c0,0-0.1,0-0.1,0   C10.4,23,8.1,24.3,7,22.7c-1-1.4-1-2.6-0.9-2.9c1.6,0,6.2-4.6,7-5.7c0.8-1.2,1.4-1.9,1.6-2.1c0.4-0.2,0.7-0.4,1.1-0.6   c2-1.2,4-2.4,4.9-1.6c0.1,0.1,0.2,0.2,0.4,0.3c-0.1,1.2-0.5,3.1-1.3,2.8c-1.2-0.5-3.2-0.7-4.5,1.1c-1.4,1.7-1.4,3.4-2.6,3.6   s-2.1,2.3,1.3,3.1c3.4,0.7,3.1-1.4,6.2-1.1c3,0.3,6.2,2,5.5,3.6c-0.6,1.4-1,3.1-1,4.5C23.8,26.3,23.1,25.2,22.6,24.4z M18.2,15.3   c0,0.4-0.3,0.7-0.7,0.7s-0.7-0.3-0.7-0.7s0.3-0.7,0.7-0.7S18.2,14.9,18.2,15.3z M8.6,42.4c-0.8-0.2-2.3-0.4-3.5,0.2   c-0.6,0.3-1.1-0.1-1.4-0.4l2.1-1.7c0.5,0.3,1.9,0.9,3.2,1.1C8.8,41.9,8.7,42.2,8.6,42.4z M13.7,37.1c-1.5,0.3-2.8,1.8-3.8,3.2   c-1,0-2.1-0.5-2.9-0.8l4.5-3.6c0.9-0.4,3.2-1.2,4.4-1.2c0,0,0,0,0,0c1.5,0,7-1.3,8.7-1.7c0.4,1.4,0.9,2.7,1.2,3.3   c-0.3,0.2-0.7,0.4-1.1,0.7C23.4,37,16,36.7,13.7,37.1z M9.6,51.7c-0.7,0-1.2-0.4-1.6-0.8c0.3-0.3,0.8-0.8,1.3-1.3   c0.4,0.4,1,0.8,2.1,1c-0.1,0.1-0.2,0.3-0.3,0.3C10.7,51.5,10.2,51.7,9.6,51.7z M73.6,50.1c-0.3,0-1.1-0.1-1.7,0.4   c-0.3,0.3-0.7,0.8-0.7,1.9c0,0.1,0,0.2,0,0.2c-0.2-0.1-0.4-0.2-0.4-0.3c0-0.7-0.6-1.7-0.9-2.3c-0.1-0.2-0.3-0.3-0.6-0.3   c-0.1,0-2.3-0.1-3.2-0.1c-0.1,0-0.3,0-0.4,0c-0.3,0-0.7-0.1-1.1,0.2c-0.4,0.3-0.5,0.8-0.6,1.7c0,0.3-0.1,0.4-0.1,0.4   c-0.1-0.1-0.2-0.2-0.2-0.4c0-1.4-1.1-2.2-1.1-2.3c-0.1-0.1-0.2-0.1-0.3-0.1c-2.3-0.5-3.9-1.7-4.8-2.5c1.3-0.2,2.6-0.4,3.9-0.6   c3.8-0.7,7.1-1.2,9.6,0.2c0.2,0.1,0.8,0.8,1.4,1.4c0.6,0.6,1.4,1.4,2.3,2.2L73.6,50.1z M82.3,54.4c-1.2-0.8-2.3-1.5-3.3-2.4   c-2.2-1.8-4.2-3.8-5.6-5.2c-1-1-1.4-1.4-1.7-1.6c-2.9-1.7-6.6-1.1-10.5-0.4c-2.9,0.5-5.9,1-8.9,0.7c-5.9-0.5-9.1-2.4-11.2-3.7   c-0.5-0.3-0.9-0.6-1.4-0.8c-1.3-0.6-3-1.1-4.4-1.3c0-0.1,0-0.2,0-0.3c-0.1-0.4-0.5-0.6-0.8-0.5c-0.9,0.2-4.2,1.5-7.1,2.7   c-1.7,0.7-3.1,1.2-3.8,1.5c-1.2,0.4-2.5,0.3-3.4,0.1c-0.4-0.1-0.8-0.1-1-0.1c-1.1,0.1-4.2,3.4-4.4,5.4c-0.1,0.8-0.4,1-0.5,1   c-0.4-0.1-0.7,0-1.1,0c-1.8-0.2-2.6-0.6-2.9-0.9c0.2-0.2,0.4-0.3,0.5-0.5c0.3-0.3,0.7-0.6,1-0.9c1.5-1.3,3.1-2.7,3.9-3.8   c0.7-1,1.7-1.3,1.7-1.3c0,0,0.1,0,0.1-0.1l5.2-2.5c5.3-2.6,7-5,7.1-5.1c0.2-0.3,0.1-0.7-0.2-1c-0.3-0.2-0.7-0.1-1,0.2   c0,0-0.5,0.7-1.8,1.8c-0.4-1-1.1-2.9-1.4-4.7c-0.1-0.6-0.3-1.2-0.5-1.8c0.7,0,1.9-0.7,2.6,0.3c1,1.4,1.9,2,3.4,0.9s2.1-4.5,3.5-7.4   c0,0-0.1-1.5,1.9-1c2,0.5,2.6-1.4,2.2-3.1c-0.3-1.1-1.1-2.3-2.2-3c0.4,0,0.8,0,1.2-0.1c1.3-0.1,2.5-0.2,5.4,0.8   c0.2,0.1,0.4,0.1,0.6,0.2c-0.3,0.5-0.4,1.4,0.5,2.9c1.6,2.5,2,5.4,4.3,3.8c1.6-1.1,2.4-2.8,3.3-3.5c1.1,0.4,2.3,0.8,3.4,1.3   c0.5,0.9,1.6,3.2-0.4,4c0,0-3.3,0.3-2.8,2.4s-1.5,2.9-3.7,1.1c-2.2-1.8-3.7,1.8-2.3,2.8c1.4,1,1.2,7.2,3.5,6.5   c2.4-0.6,7.2-2.5,9.1-1.3c1.9,1.1,3.2,3.5,5.4,1.9c2.2-1.7,5.8-4.4,4.8-7.6c-1-3.3,2.5-3.5,3.6-3.3c0.7,0.1,1.2-1,1.4-1.7   c1.4,0.8,2.5,1.8,3.3,3.2c0.8,2.2,0.3,6.6-0.3,9.3c0,0,0,0.1,0,0.2c0,5.9,2.1,7.4,4.1,8.9c0.4,0.3,0.8,0.6,1.1,0.9   c0.4,0.4,0.7,0.6,1,0.8c0.4,0.3,0.4,0.3,0.5,0.7c0.1,0.4,0.4,1.1,0.9,2.4c1.5,3.4,3.8,4.7,5.9,5.8c0.6,2,0.2,3.1,0,3.6l-0.5-0.3   C87.4,57.8,84.8,56.1,82.3,54.4z M92.6,63l-1.2-0.8c0.4-0.6,0.7-1.7,0.5-3.4C92.7,59.8,92.7,61.7,92.6,63z M92.8,54.6   c0.4,0.5,0.3,1.9,0,3.2c-0.2-0.2-0.4-0.4-0.7-0.5c-0.2-0.1-0.4-0.2-0.6-0.3c0.3-0.5,0.8-1.5,0.6-2.9C92.4,54.2,92.5,54.3,92.8,54.6   z M80.5,43.3c0.1,0.1,1.7,2.5,3.9,3.2c0.6,0.2,1,1.3,1.4,2.4c0.5,1.5,1.1,3.2,2.7,4.1c0.9,0.5,1.6,0.8,2.2,0.9   c0.4,1.4-0.3,2.3-0.4,2.4c-1.8-1-3.5-2.1-4.7-4.8c-0.5-1.2-0.7-1.9-0.9-2.3c-0.3-0.7-0.3-0.9-1-1.4c-0.2-0.2-0.5-0.4-0.9-0.8   c-0.4-0.3-0.8-0.7-1.2-0.9c-1.8-1.3-3.5-2.6-3.5-7.7c0.1-0.3,0.2-1.1,0.4-2.2C78.9,38.7,79.6,41.6,80.5,43.3z M95.4,44.7   c-1-0.8-2.8-2.4-3.9-5c0,0,0-0.1-0.1-0.1C91.1,39.2,84.8,31,79,30c-0.1-0.5-0.3-1-0.5-1.4c1.1,0.4,2.6,1.1,4.1,2.1   c0.5,0.3,0.9,0.6,1.4,1c2.5,1.7,5,3.4,7.4,7.1c0.1,0.1,2.1,3,4.9,3c0,0,0,0,0,0L95.4,44.7z"/><path d="M8.7,19.3C8.3,19.3,8,19.6,8,20c0,0.1,0,0.2-0.1,0.2c-0.1,0.1-0.5,0.1-0.7,0.1c-0.4-0.1-0.7,0.2-0.8,0.6   c-0.1,0.4,0.2,0.7,0.6,0.8c0,0,0.2,0,0.5,0c0.4,0,1-0.1,1.4-0.4C9.1,21,9.3,20.6,9.3,20C9.3,19.6,9,19.3,8.7,19.3z"/><path d="M63.1,61.7c0,0,0-0.1-0.1-0.1c0,0-0.1-0.1-0.1-0.1c0,0-0.1-0.1-0.1-0.1c0,0-0.1,0-0.1-0.1c0,0-0.1,0-0.1,0c0,0-0.1,0-0.1,0   c0,0,0,0-0.1,0c0,0,0,0-0.1,0c0,0,0,0-0.1,0c0,0,0,0-0.1,0c0,0-0.1,0-0.1,0.1c0,0-0.1,0-0.1,0.1c0,0-0.1,0.1-0.1,0.1   c0,0,0,0.1-0.1,0.1c0,0,0,0.1,0,0.1c0,0,0,0.1,0,0.1c0,0,0,0,0,0.1c0.8,12.1-11.6,17.9-16.2,18.6c-4.8,0.8-6.4-1.5-7.3-2.7   l-0.1-0.2c0-0.1,0.1-0.6,0.2-0.9c0.3-0.7,0.6-1.6,0.1-2.5c-0.5-0.7-1.4-1.2-3.1-1.3c-4.5-0.5-6.6-4.8-6.6-4.8   c-4.4-10,4.4-20.2,4.5-20.3c0,0,0,0,0-0.1c0,0,0.1-0.1,0.1-0.1c0,0,0-0.1,0-0.1c0,0,0-0.1,0-0.1c0,0,0-0.1,0-0.1c0,0,0-0.1,0-0.1   c0,0,0,0,0,0c0,0,0-0.1-0.1-0.1c0,0-0.1-0.1-0.1-0.1c0,0,0,0,0,0c0,0,0,0-0.1,0c0,0-0.1-0.1-0.1-0.1c0,0-0.1,0-0.1,0   c0,0-0.1,0-0.1,0c0,0-0.1,0-0.1,0c0,0-0.1,0-0.1,0c-11.3,3.8-18.2,15.6-15.9,27.4c2.2,11.6,12.4,19.7,23.7,19.7   c1.5,0,3-0.1,4.5-0.4c6.3-1.2,11.9-5.1,15.4-10.6C64,76.8,65.1,69.3,63.1,61.7C63.1,61.7,63.1,61.7,63.1,61.7z M59.1,82.1   c-3.3,5.2-8.6,8.8-14.5,9.9c-12.3,2.3-24.3-5.8-26.6-18.1c-2-10.3,3.5-20.6,12.8-24.9c-2.5,3.6-6.7,11.6-3.2,19.7   c0.1,0.2,2.4,5,7.7,5.6c1.6,0.2,2,0.5,2.1,0.7c0.2,0.3,0,0.8-0.2,1.3c-0.2,0.7-0.5,1.5,0,2.2l0.1,0.2c0.6,0.8,1.6,2.3,3.9,3   c-1.8,1.5-3.5,2.1-3.8,2.1c-0.4-0.7-0.8-1.3-1.3-1.7c-0.3-0.3-0.7-0.2-1,0c-0.3,0.3-0.2,0.7,0,1c0,0,2.2,2.1,0.8,3.6   c-0.3,0.3-0.2,0.7,0,1c0.1,0.1,0.3,0.2,0.5,0.2c0.2,0,0.4-0.1,0.5-0.2c0.7-0.8,0.9-1.7,0.8-2.5c0.6-0.2,2.8-1,5-3.1   c0.3,0,0.7,0.1,1.1,0.1c0.6,0,1.3-0.1,2-0.2C51.2,81,60.3,76,62.6,67.2C63,72.6,61.8,77.8,59.1,82.1z"/><path d="M25,70.8c-0.9,0.2-1.6,0.7-2.1,1.4c-0.5,0.7-0.7,1.6-0.5,2.5c0.3,1.6,1.7,2.7,3.2,2.7c0.2,0,0.4,0,0.6-0.1   c1.8-0.3,2.9-2.1,2.6-3.8C28.5,71.6,26.7,70.5,25,70.8z M25.9,75.9c-0.5,0.1-1,0-1.4-0.3c-0.4-0.3-0.7-0.7-0.8-1.2   c-0.1-0.5,0-1,0.3-1.4c0.3-0.4,0.7-0.7,1.2-0.8c0,0,0.1,0,0.1,0c-0.4,0.3-0.6,0.8-0.5,1.3c0.1,0.7,0.8,1.2,1.5,1   c0.5-0.1,0.9-0.5,1-0.9c0,0,0,0.1,0,0.1C27.6,74.7,27,75.7,25.9,75.9z"/></g></svg>