<svg xmlns="http://www.w3.org/2000/svg" xml:space="preserve" viewBox="1 7 32 20"><path d="M12.01 15.27c-.2-.11-.41-.16-.66-.16-.24 0-.46.05-.65.16s-.34.27-.45.47-.17.44-.17.69c0 .26.06.49.17.69s.26.36.45.47c.39.22.92.22 1.31 0 .19-.11.34-.26.45-.47.11-.2.17-.43.17-.69s-.06-.49-.17-.69-.26-.35-.45-.47m9.43-.12h-.82v2.56h.82c.41 0 .74-.11.99-.34.24-.23.35-.54.35-.94s-.11-.7-.35-.93c-.25-.24-.57-.35-.99-.35"/><path d="M33 20.97v-7.94c0-.65-.31-1.25-.84-1.63l-5.64-4.03A2 2 0 0 0 25.36 7H4.89C2.74 7 1 8.79 1 11v12c0 2.21 1.74 4 3.89 4h20.47a2 2 0 0 0 1.16-.37l5.64-4.03c.53-.38.84-.98.84-1.63m-25.12-2.8c-.16.24-.4.43-.71.56-.3.13-.67.2-1.1.2-.37 0-.73-.05-1.07-.15s-.63-.24-.84-.41c-.05-.03-.07-.1-.04-.16l.35-.8a.16.16 0 0 1 .09-.07c.04-.01.08 0 .11.02.18.13.4.24.65.33.25.08.51.12.76.12.27 0 .46-.04.58-.11.14-.09.15-.18.15-.24a.2.2 0 0 0-.08-.17.9.9 0 0 0-.27-.15c-.13-.04-.3-.09-.52-.14-.35-.08-.63-.17-.86-.25-.24-.09-.45-.24-.62-.44-.17-.21-.26-.48-.26-.82 0-.29.07-.56.23-.8.15-.23.39-.42.7-.56.3-.13.67-.2 1.1-.2.29 0 .58.04.87.11s.54.18.76.32c.05.03.08.1.05.16l-.32.81c-.01.03-.04.06-.08.07-.04.02-.08.01-.11-.01-.39-.22-.79-.34-1.18-.34-.26 0-.46.04-.57.12q-.15.105-.15.27c0 .07.02.16.16.23.15.07.39.14.71.21.35.08.64.17.86.25.24.09.44.24.62.43.17.21.26.48.26.82 0 .29-.08.55-.23.79m5.73-.46q-.345.57-.93.9c-.39.21-.84.32-1.33.32-.48 0-.93-.11-1.32-.32q-.6-.33-.93-.9c-.23-.37-.34-.81-.34-1.28s.11-.9.34-1.28c.22-.38.53-.68.93-.89.39-.22.84-.33 1.32-.33.49 0 .94.11 1.33.33a2.41 2.41 0 0 1 1.27 2.17c0 .47-.11.9-.34 1.28m4.9 1.01c0 .07-.06.13-.13.13h-3.3c-.07 0-.13-.06-.13-.13v-4.57c0-.08.06-.14.13-.14h1.04c.08 0 .14.06.14.14v3.57h2.12c.07 0 .13.06.13.14zm5.26-1.02c-.22.37-.53.65-.92.86-.4.19-.85.29-1.36.29h-2.04c-.08 0-.14-.06-.14-.13v-4.57c0-.08.06-.14.14-.14h2.04c.51 0 .96.1 1.36.3.39.2.7.49.92.85s.34.79.34 1.27-.12.91-.34 1.27M29 18.96c-1.1 0-2-.9-2-2s.9-2 2-2 2 .9 2 2-.9 2-2 2"/></svg>